# xmcd CD database file
#
# Track frame offsets:
#       150
#       20350
#       35665
#       45603
#       60215
#       71685
#       79569
#       90924
#       111096
#       125546
#       134888
#       149722
#       162907
#       184563
#       203570
#       215991
#       226080
#       240322
#       256153
#
# Disc length: 3608 seconds
#
# Revision: 1
# Processed by: cddbd v1.5.2PL0 Copyright (c) Steve Scherf et al.
# Submitted via: jack 3.1.1
#
DISCID=040e1613
DTITLE=Peter Green's Fleetwood Mac - Transmission Impossible CD2
DYEAR=2019
DGENRE=Blues
TTITLE0=Sweet Little Angel
TTITLE1=Bee-I-Bicky-Bop Blue Jean Honey Babe Meets High School Hound Dog Hot Rod Man
TTITLE2=Where You Belong (BBC Top Gear)
TTITLE3=Please Find My Baby
TTITLE4=Black Magic Woman
TTITLE5=Peggy Sue Got Married
TTITLE6=That AAin't It
TTITLE7=Intergalactic Musicians Walking On Velvet
TTITLE8=Dead Shripm Blues
TTITLE9=Sheila
TTITLE10=Mean Old World
TTITLE11=Evening Boogie
TTITLE12=You Need Love
TTITLE13=Talk With You
TTITLE14=Bo Diddley
TTITLE15=Wine, Whisykey, Women
TTITLE16=Crutch And Cane
TTITLE17=If You Be My Baby
TTITLE18=Without You
EXTD=
EXTT0=BBC Top Gear 21 Jan 1968
EXTT1=BBC Top Gear  21 Jan 1968
EXTT2=BBC Top Gear 24 Mar 1968
EXTT3=Saturday Club 13 Apr 1968
EXTT4=Saturday Club 13 Apr 1968
EXTT5==Saturday Club 13 Apr 1968
EXTT6=BBC Top Gear 2 Jun 1968
EXTT7=BBC Top Gear 2 Jun 1968
EXTT8=BBC Top Gear 2 Jun 1968
EXTT9=BBC Top Gear 10 Jul 1968
EXTT10=The Blues Roll On 23 Jul 1968
EXTT11=Radio One O'Clock 26 Aug 1968
EXTT12=BBC Top Gear 13 Oct 1968
EXTT13=BBC Top Gear 13 Oct 1968
EXTT14=BBC Top Gear 13 Oct 1968
EXTT15=BBC Top Gear 13 Oct 1968
EXTT16=BBC Top Gear 24 Nov 1968
EXTT17=BBC Top Gear 24 Nov 1968
EXTT18=BBC Top Gear 24 Nov 1968
PLAYORDER=
